<svg width="302" height="131" viewBox="0 0 302 131" fill="none" xmlns="http://www.w3.org/2000/svg">
<path d="M0.0497712 0L58.6019 0C48.8358 107.014 95.0498 128.964 118.55 129C118.55 129 106.283 132.56 85.2814 128.962C-4.9503 113.5 0.0497712 0 0.0497712 0Z" fill="#3362AD"/>
<path d="M136.72 40.8V52C135.653 51.6267 131.867 50.48 130.48 50.16C129.093 49.84 127.653 49.5733 126.16 49.36C124.667 49.1467 123.173 48.9867 121.68 48.88C120.187 48.7733 118.747 48.72 117.36 48.72C114.213 48.72 111.813 49.1467 110.16 50C108.507 50.8533 107.68 52.1867 107.68 54C107.68 54.96 107.947 55.8133 108.48 56.56C109.013 57.2533 109.867 57.8933 111.04 58.48C112.213 59.0667 113.733 59.6533 115.6 60.24C117.467 60.8267 119.707 61.4667 122.32 62.16C125.147 62.8533 127.6 63.7067 129.68 64.72C131.813 65.68 133.573 66.8267 134.96 68.16C136.4 69.44 137.467 70.96 138.16 72.72C138.907 74.4267 139.28 76.4267 139.28 78.72C139.28 82.3467 138.32 85.4133 136.4 87.92C134.48 90.4267 131.653 92.3467 127.92 93.68C124.187 94.96 119.6 95.6 114.16 95.6C112.347 95.6 110.48 95.52 108.56 95.36C106.64 95.2 104.693 94.9867 102.72 94.72C100.8 94.4 98.9333 94.0267 97.12 93.6C95.3067 93.12 93.6 92.5867 92 92V81C93.6 81.5333 97.8133 82.6933 99.52 83.12C101.227 83.5467 102.96 83.92 104.72 84.24C106.48 84.5067 108.213 84.72 109.92 84.88C111.68 85.04 113.333 85.12 114.88 85.12C117.28 85.12 119.227 84.9333 120.72 84.56C122.267 84.1333 123.387 83.52 124.08 82.72C124.827 81.92 125.2 80.9333 125.2 79.76C125.2 78.7467 124.827 77.8933 124.08 77.2C123.387 76.5067 122.32 75.8667 120.88 75.28C119.44 74.64 117.627 74 115.44 73.36C113.307 72.72 110.827 71.9733 108 71.12C105.6 70.32 103.493 69.4133 101.68 68.4C99.92 67.3867 98.4267 66.24 97.2 64.96C95.9733 63.6267 95.04 62.1067 94.4 60.4C93.8133 58.6933 93.52 56.7733 93.52 54.64C93.52 52.24 93.9733 50.0267 94.88 48C95.84 45.9733 97.2533 44.2133 99.12 42.72C101.04 41.2267 103.52 40.08 106.56 39.28C109.6 38.4267 113.2 38 117.36 38C119.813 38 122.24 38.1333 124.64 38.4C127.093 38.6667 129.36 39.0133 131.44 39.44C133.52 39.8667 135.28 40.32 136.72 40.8Z" fill="#222831"/>
<path d="M142.966 73.68C142.966 68.5067 143.819 64.2133 145.526 60.8C147.286 57.3867 149.846 54.8267 153.206 53.12C156.566 51.36 160.699 50.48 165.606 50.48C167.312 50.48 169.019 50.56 170.726 50.72C172.486 50.8267 174.166 51.0133 175.766 51.28C177.366 51.4933 179.72 51.6267 181 52V63C179.72 62.7333 175.686 62.56 174.406 62.4C173.126 62.24 171.872 62.1067 170.646 62C169.419 61.8933 168.219 61.84 167.046 61.84C164.752 61.84 162.806 62.2667 161.206 63.12C159.659 63.92 158.486 65.1733 157.686 66.88C156.939 68.5333 156.566 70.6667 156.566 73.28C156.566 75.7867 156.966 77.8667 157.766 79.52C158.619 81.12 159.846 82.3467 161.446 83.2C163.099 84 165.046 84.4 167.286 84.4C168.566 84.4 169.819 84.3467 171.046 84.24C172.326 84.1333 173.606 83.9733 174.886 83.76C176.166 83.5467 179.499 82.8267 180.886 82.56V93.44C178.592 94.08 175.979 94.5867 173.046 94.96C170.112 95.3867 167.232 95.6 164.406 95.6C157.259 95.6 151.899 93.8133 148.326 90.24C144.752 86.6133 142.966 81.0933 142.966 73.68Z" fill="#222831"/>
<path d="M183.356 72.96C183.356 69.44 183.703 66.2933 184.396 63.52C185.09 60.7467 186.236 58.4 187.836 56.48C189.436 54.5067 191.596 53.0133 194.316 52C197.036 50.9867 200.423 50.48 204.476 50.48C208.53 50.48 211.916 50.9867 214.636 52C217.356 53.0133 219.516 54.5067 221.116 56.48C222.716 58.4 223.863 60.7467 224.556 63.52C225.25 66.2933 225.596 69.44 225.596 72.96C225.596 76.5333 225.223 79.7333 224.476 82.56C223.73 85.3867 222.53 87.76 220.876 89.68C219.223 91.6 217.036 93.0667 214.316 94.08C211.65 95.0933 208.37 95.6 204.476 95.6C200.583 95.6 197.276 95.0933 194.556 94.08C191.89 93.0667 189.73 91.6 188.076 89.68C186.423 87.76 185.223 85.3867 184.476 82.56C183.73 79.7333 183.356 76.5333 183.356 72.96ZM196.876 72.96C196.876 76.16 197.116 78.6933 197.596 80.56C198.13 82.4267 198.956 83.76 200.076 84.56C201.196 85.3067 202.663 85.68 204.476 85.68C206.343 85.68 207.81 85.3067 208.876 84.56C209.996 83.76 210.823 82.4267 211.356 80.56C211.89 78.6933 212.156 76.16 212.156 72.96C212.156 69.76 211.916 67.2533 211.436 65.44C210.956 63.6267 210.156 62.3467 209.036 61.6C207.916 60.8 206.396 60.4 204.476 60.4C202.556 60.4 201.036 60.8 199.916 61.6C198.85 62.3467 198.076 63.6267 197.596 65.44C197.116 67.2533 196.876 69.76 196.876 72.96Z" fill="#222831"/>
<path d="M243.202 51.28V56.32C244.696 54.9333 246.056 53.8133 247.283 52.96C248.509 52.1067 249.762 51.4933 251.042 51.12C252.322 50.6933 253.736 50.48 255.283 50.48C256.136 50.48 257.043 50.56 258.003 50.72C258.963 50.8267 259.923 51.04 260.883 51.36V64C259.923 63.7867 256.883 62.8267 255.923 62.72C254.962 62.56 254.083 62.48 253.283 62.48C251.896 62.48 250.44 63.04 249 63.52C247.56 63.9467 245.5 65.5 244.402 67.5V94.8H231.363V51.28H243.202Z" fill="#222831"/>
<path d="M282.372 95.6C278.959 95.6 275.946 95.2 273.333 94.4C270.719 93.5467 268.479 92.2667 266.613 90.56C264.799 88.8 263.413 86.56 262.452 83.84C261.492 81.0667 261.012 77.7867 261.012 74C261.012 69.68 261.546 66.0267 262.613 63.04C263.732 60.0533 265.253 57.6267 267.173 55.76C269.146 53.8933 271.466 52.56 274.133 51.76C276.799 50.9067 279.706 50.48 282.853 50.48C289.253 50.48 293.946 52.0533 296.932 55.2C299.972 58.3467 301.493 63.4667 301.493 70.56C301.493 71.0933 301.466 71.7867 301.413 72.64C301.413 73.44 301.386 74.24 301.333 75.04C299.999 75.1467 298.372 75.28 296.452 75.44C294.533 75.6 292.399 75.76 290.053 75.92C287.706 76.08 285.226 76.2133 282.613 76.32C279.999 76.4267 277.333 76.5067 274.613 76.56C274.559 76.72 274.533 76.88 274.533 77.04C274.533 77.2 274.533 77.3867 274.533 77.6C274.533 79.36 274.879 80.8267 275.572 82C276.319 83.12 277.439 83.9733 278.932 84.56C280.426 85.0933 282.373 85.36 284.773 85.36C286.266 85.36 287.839 85.28 289.493 85.12C291.146 84.96 292.826 84.7467 294.533 84.48C296.239 84.16 299.626 83.3733 301.333 83V92.5C299.466 93.0867 297.386 93.9733 295.413 94.4C293.439 94.8267 291.386 95.12 289.253 95.28C287.119 95.4933 284.826 95.6 282.372 95.6ZM274.693 68.8C276.079 68.8 277.466 68.7733 278.853 68.72C280.239 68.6667 281.546 68.6133 282.773 68.56C283.999 68.4533 285.092 68.3733 286.053 68.32C287.013 68.2667 287.812 68.24 288.452 68.24C288.399 66.1067 288.132 64.4267 287.652 63.2C287.173 61.92 286.479 61.0133 285.572 60.48C284.666 59.9467 283.519 59.68 282.133 59.68C281.173 59.68 280.292 59.8133 279.492 60.08C278.692 60.3467 277.946 60.8267 277.253 61.52C276.613 62.16 276.052 63.0933 275.572 64.32C275.146 65.4933 274.853 66.9867 274.693 68.8Z" fill="#222831"/>
</svg>
